<svg xmlns="http://www.w3.org/2000/svg" width="90.113" height="90.113" viewBox="0 0 90.113 90.113">
  <g id="hassle_free_meetings" data-name="hassle free meetings" transform="translate(0)">
    <ellipse id="Ellipse_263" data-name="Ellipse 263" cx="45.056" cy="45.056" rx="45.056" ry="45.056" transform="translate(0)" fill="#fafafa"/>
    <g id="Group_531" data-name="Group 531" transform="translate(15.936 32.256)">
      <path id="XMLID_8_" d="M335.54,364.943H323.366a.407.407,0,0,1-.406-.405h0a6.088,6.088,0,0,1,6.087-6.087h.816a6.088,6.088,0,0,1,6.087,6.087h0A.411.411,0,0,1,335.54,364.943Z" transform="translate(-322.96 -344.798)" fill="none" stroke="#1aa7de" stroke-miterlimit="10" stroke-width="3"/>
      <ellipse id="Ellipse_264" data-name="Ellipse 264" cx="3.131" cy="3.131" rx="3.131" ry="3.131" transform="translate(3.361 4.105)" fill="none" stroke="#1aa7de" stroke-miterlimit="10" stroke-width="3"/>
      <path id="XMLID_7_" d="M435.97,364.943H423.8a.407.407,0,0,1-.406-.405h0a6.088,6.088,0,0,1,6.087-6.087h.816a6.088,6.088,0,0,1,6.087,6.087h0A.411.411,0,0,1,435.97,364.943Z" transform="translate(-378.14 -344.798)" fill="none" stroke="#1aa7de" stroke-miterlimit="10" stroke-width="3"/>
      <ellipse id="Ellipse_265" data-name="Ellipse 265" cx="3.131" cy="3.131" rx="3.131" ry="3.131" transform="translate(48.611 4.105)" fill="none" stroke="#1aa7de" stroke-miterlimit="10" stroke-width="3"/>
      <path id="XMLID_1_" d="M384.389,371.153H363.172a.713.713,0,0,1-.712-.712h0a10.612,10.612,0,0,1,10.611-10.611h1.419A10.612,10.612,0,0,1,385.1,370.441h0A.713.713,0,0,1,384.389,371.153Z" transform="translate(-344.663 -345.556)" fill="#1aa7de"/>
      <circle id="Ellipse_266" data-name="Ellipse 266" cx="5.456" cy="5.456" r="5.456" transform="translate(23.664)" fill="#1aa7de"/>
    </g>
  </g>
</svg>
