<svg xmlns="http://www.w3.org/2000/svg" xmlns:xlink="http://www.w3.org/1999/xlink" width="195.249" height="195.25" viewBox="0 0 195.249 195.25">
  <defs>
    <filter id="XMLID_4_" x="0" y="0" width="195.249" height="195.25" filterUnits="userSpaceOnUse">
      <feOffset dy="15" input="SourceAlpha"/>
      <feGaussianBlur stdDeviation="20" result="blur"/>
      <feFlood flood-color="#1aa7de" flood-opacity="0.502"/>
      <feComposite operator="in" in2="blur"/>
      <feComposite in="SourceGraphic"/>
    </filter>
  </defs>
  <g id="Group_530" data-name="Group 530" transform="translate(60 45)">
    <g transform="matrix(1, 0, 0, 1, -60, -45)" filter="url(#XMLID_4_)">
      <path id="XMLID_4_2" data-name="XMLID_4_" d="M371.875,390.339h0a37.624,37.624,0,0,1-37.625-37.625h0a37.624,37.624,0,0,1,37.625-37.625h0A37.624,37.624,0,0,1,409.5,352.715h0A37.624,37.624,0,0,1,371.875,390.339Z" transform="translate(-274.25 -270.09)" fill="#1aa7de"/>
    </g>
    <g id="XMLID_810_" transform="translate(19.646 21.007)">
      <path id="XMLID_811_" d="M380.506,351.626c-.891-.437-5.232-2.559-6.041-2.851-.81-.308-1.409-.437-1.992.437s-2.3,2.851-2.8,3.417c-.518.583-1.037.664-1.927.227a23.841,23.841,0,0,1-7.11-4.357,26.421,26.421,0,0,1-4.908-6.057c-.5-.875-.049-1.344.389-1.782.4-.4.875-1.037,1.328-1.539.113-.146.227-.292.324-.421a7.924,7.924,0,0,0,.551-1.053,1.6,1.6,0,0,0-.065-1.539c-.227-.437-1.992-4.762-2.737-6.511-.729-1.749-1.474-1.458-1.992-1.458-.5,0-1.1-.081-1.684-.081a3.3,3.3,0,0,0-2.365,1.1,9.8,9.8,0,0,0-3.094,7.321,10.8,10.8,0,0,0,.453,2.98,19.626,19.626,0,0,0,3.158,6.074c.437.567,6.106,9.718,15.079,13.249,8.989,3.5,8.989,2.332,10.609,2.17,1.62-.13,5.232-2.106,5.96-4.163a7.129,7.129,0,0,0,.518-4.163C381.964,352.29,381.381,352.063,380.506,351.626Z" transform="translate(-346.38 -328.06)" fill="#fafafa" fill-rule="evenodd"/>
    </g>
  </g>
</svg>
