<svg xmlns="http://www.w3.org/2000/svg" width="89" height="90" viewBox="0 0 89 90">
  <g id="Group_535" data-name="Group 535" transform="translate(-0.045 0.332)">
    <ellipse id="Ellipse_267" data-name="Ellipse 267" cx="44.5" cy="45" rx="44.5" ry="45" transform="translate(0.045 -0.332)" fill="#fafafa"/>
    <g id="proctored" transform="translate(23.46 25.866)">
      <path id="Path_347" data-name="Path 347" d="M473.261,446.43H433.946a2.2,2.2,0,0,0-2.2,2.2v8.065a2.2,2.2,0,0,0,2.2,2.2h39.315a2.2,2.2,0,0,0,2.2-2.2v-8.065A2.2,2.2,0,0,0,473.261,446.43Zm-7.138,6.449a.878.878,0,0,1-.879.878h-2.2a.878.878,0,0,1-.879-.878v-.439a.881.881,0,0,1,.879-.879h2.2a.881.881,0,0,1,.879.879Zm6.15-.048a.881.881,0,0,1-.879.879h-2.2a.881.881,0,0,1-.879-.879v-.439a.881.881,0,0,1,.879-.879h2.2a.881.881,0,0,1,.879.879Z" transform="translate(-431.75 -446.43)" fill="#1aa7de"/>
      <path id="Path_348" data-name="Path 348" d="M475.612,497.62a4.612,4.612,0,1,0,4.612,4.612A4.617,4.617,0,0,0,475.612,497.62Zm0,5.93a1.318,1.318,0,1,1,1.318-1.318A1.316,1.316,0,0,1,475.612,503.55Z" transform="translate(-453.758 -475.134)" fill="#1aa7de"/>
      <path id="Path_349" data-name="Path 349" d="M473.294,483.25H434.226a2.2,2.2,0,0,0-2.183,2.456,21.856,21.856,0,0,0,43.435,0A2.2,2.2,0,0,0,473.294,483.25ZM453.76,500.1a5.93,5.93,0,1,1,5.93-5.93A5.936,5.936,0,0,1,453.76,500.1Z" transform="translate(-431.906 -467.076)" fill="#1aa7de"/>
    </g>
  </g>
</svg>
